<svg width="716" height="407" viewBox="0 0 716 407" fill="none" xmlns="http://www.w3.org/2000/svg">
<g clip-path="url(#clip0_462_26890)">
<path d="M233.88 0C235.664 1.30645 237.399 2.59773 238.969 4.16311C239.272 4.46547 239.576 4.76783 239.889 5.07936C240.355 5.55097 240.355 5.55097 240.829 6.0321C241.156 6.36133 241.482 6.69056 241.818 7.02976C244.12 9.37535 246.256 11.7505 248.241 14.3744C248.615 14.8516 248.99 15.3286 249.366 15.8054C266.193 37.4309 274.678 65.8714 271.629 93.2281C271.493 93.6346 271.358 94.0412 271.218 94.4601C316.037 94.4601 360.856 94.4601 407.033 94.4601C407.033 125.17 397.137 155.021 377.9 179.064C377.577 179.475 377.253 179.886 376.919 180.31C371.203 187.463 364.644 194.423 357.385 200.009C356.987 200.336 356.59 200.663 356.181 201.001C349.478 206.499 342.091 211.209 334.407 215.205C334.135 215.348 333.862 215.492 333.582 215.64C322.781 221.315 307.472 228.691 295.017 228.347C294.937 228.028 294.856 227.708 294.774 227.379C293.003 220.379 290.993 213.59 288.436 206.828C287.854 205.252 287.33 203.66 286.81 202.063C288.397 201.579 289.966 201.171 291.595 200.856C313.019 196.691 331.835 186.282 347.537 171.26C347.844 170.97 348.15 170.68 348.467 170.381C350.325 168.58 351.963 166.639 353.579 164.619C354.174 163.879 354.778 163.146 355.394 162.424C359.901 157.115 363.603 151.141 366.822 144.976C367.081 144.487 367.081 144.487 367.345 143.988C371.095 136.835 373.252 129.776 375.849 121.977C339.154 122.112 302.46 122.248 264.653 122.387C263.435 125.098 262.216 127.809 260.96 130.601C256.583 139.43 251.079 147.726 244.351 154.943C243.53 155.833 242.739 156.735 241.951 157.653C240.5 159.318 238.956 160.849 237.342 162.353C237.055 162.62 236.769 162.887 236.474 163.163C234.051 165.398 231.541 167.472 228.905 169.45C228.1 170.054 227.303 170.668 226.505 171.281C219.103 176.91 211.21 181.894 203.344 186.845C197.749 190.368 192.701 194.198 187.924 198.777C187.717 198.973 187.511 199.169 187.297 199.371C184.152 202.36 181.414 205.509 178.897 209.044C178.729 209.279 178.561 209.513 178.388 209.755C166.499 226.491 161.231 247.628 164.607 267.944C167.161 282.18 172.037 295.968 177.666 309.254C177.852 309.694 178.037 310.134 178.228 310.587C181.028 317.186 184.108 323.646 187.262 330.081C187.849 331.279 188.432 332.479 189.014 333.679C191.991 339.776 195.225 345.771 198.879 351.489C199.134 351.889 199.389 352.288 199.651 352.699C199.94 353.15 199.94 353.15 200.234 353.609C200.273 339.125 200.176 324.645 199.985 310.162C199.953 307.716 199.923 305.269 199.892 302.823C199.832 297.984 199.77 293.146 199.708 288.307C199.704 288.021 199.701 287.735 199.697 287.441C199.689 286.863 199.682 286.284 199.674 285.706C199.671 285.419 199.667 285.133 199.663 284.837C199.658 284.407 199.658 284.407 199.652 283.968C199.611 280.761 199.57 277.554 199.529 274.348C199.525 274.06 199.521 273.771 199.518 273.474C199.456 268.635 199.395 263.795 199.334 258.955C199.3 256.261 199.266 253.567 199.231 250.874C199.224 250.359 199.217 249.844 199.211 249.313C199.197 248.296 199.184 247.28 199.171 246.263C199.14 243.874 199.111 241.486 199.088 239.097C199.08 238.213 199.072 237.33 199.063 236.446C199.057 235.817 199.057 235.817 199.051 235.175C199.027 232.984 198.984 230.796 198.907 228.607C198.877 227.735 198.853 226.862 198.831 225.989C198.804 225.01 198.766 224.031 198.712 223.053C198.651 220.187 198.651 220.187 199.658 218.859C201.21 217.461 202.828 216.609 204.786 215.91C205.808 215.525 206.69 214.953 207.619 214.383C207.89 214.383 208.161 214.383 208.44 214.383C208.261 224.634 208.081 234.884 207.902 245.134C207.895 245.522 207.888 245.909 207.881 246.308C207.428 272.176 206.973 298.043 206.517 323.911C206.51 324.298 206.503 324.686 206.496 325.085C206.324 334.867 206.151 344.649 205.978 354.431C206.804 353.064 207.628 351.696 208.451 350.328C208.865 349.64 209.28 348.953 209.695 348.267C225.517 321.951 243.552 287.442 243.471 256.146C243.471 255.822 243.47 255.499 243.47 255.165C243.452 249.522 242.991 244.119 241.676 238.615C241.588 238.246 241.5 237.878 241.409 237.499C238.514 225.801 233.301 214.358 225.324 205.229C224.442 204.116 224.442 204.116 224.442 202.884C225.094 202.568 225.094 202.568 225.758 202.245C230.044 200.106 234.06 197.668 238.034 195.004C238.387 194.768 238.387 194.768 238.747 194.527C241.352 192.782 243.878 191.005 246.267 188.971C246.635 188.743 246.635 188.743 247.01 188.51C248.361 188.96 248.55 189.183 249.355 190.289C249.672 190.723 249.672 190.723 249.995 191.166C250.22 191.484 250.445 191.802 250.677 192.129C250.913 192.46 251.149 192.792 251.392 193.134C268.931 218.138 274.786 247.928 269.671 277.874C267.215 291.351 262.803 304.549 257.268 317.058C257.017 317.629 257.017 317.629 256.761 318.213C251.918 329.195 246.521 339.973 240.445 350.324C240.192 350.758 239.938 351.192 239.678 351.639C237.768 354.911 235.834 358.168 233.88 361.413C233.647 361.8 233.413 362.187 233.173 362.586C228.452 370.379 223.335 377.917 218.265 385.485C216.902 387.521 215.544 389.559 214.194 391.604C211.574 395.569 208.929 399.493 206.074 403.294C205.179 404.507 204.341 405.738 203.516 407C190.039 401.392 177.031 373.742 169.87 361.413C169.698 361.117 169.526 360.821 169.348 360.516C168.447 358.959 167.569 357.391 166.707 355.812C166.313 355.089 165.916 354.367 165.518 353.645C154.338 333.324 145.33 311.725 139.917 289.13C139.746 288.425 139.746 288.425 139.57 287.705C132.288 257.41 135.399 226.512 151.558 199.48C152.675 197.694 153.866 195.966 155.099 194.259C155.553 193.625 155.553 193.625 156.016 192.978C167.946 176.697 183.603 165.816 200.362 154.961C206.983 150.667 213.341 146.29 219.108 140.869C219.326 140.665 219.544 140.46 219.769 140.25C235.514 125.377 243.114 104.88 244.213 83.5526C244.627 64.8212 237.944 46.0376 226.084 31.6236C225.804 31.2778 225.804 31.2778 225.518 30.9249C220.709 24.7625 220.709 24.7625 214.595 20.1241C215.218 18.656 216.078 17.7182 217.204 16.5983C217.573 16.2284 217.943 15.8585 218.324 15.4774C218.727 15.0776 219.131 14.6778 219.535 14.2781C219.948 13.8663 220.36 13.4543 220.773 13.0421C221.857 11.96 222.944 10.8804 224.031 9.80129C225.141 8.69879 226.249 7.59396 227.356 6.48932C229.528 4.32392 231.703 2.16114 233.88 0Z" fill="#01A0B6"/>
<path d="M173.908 0.0659517C175.107 0.532389 175.766 1.23013 176.676 2.1408C177.045 2.50813 177.415 2.87546 177.795 3.25392C178.195 3.65739 178.594 4.06099 178.994 4.46471C179.405 4.87672 179.817 5.28852 180.228 5.70011C181.09 6.56236 181.949 7.42668 182.807 8.29262C183.908 9.40425 185.014 10.5113 186.121 11.6168C186.971 12.4661 187.819 13.3174 188.666 14.1694C189.073 14.5785 189.481 14.9871 189.889 15.3951C190.458 15.9643 191.024 16.5364 191.59 17.1088C191.913 17.434 192.236 17.7593 192.569 18.0944C193.258 18.892 193.258 18.892 193.258 19.7134C192.62 20.2758 191.957 20.8097 191.284 21.3305C175.657 33.8795 166.047 53.7228 163.694 73.4159C162.053 89.1459 164.7 105.614 172.32 119.559C172.755 120.357 173.176 121.16 173.597 121.966C175.515 125.568 177.749 128.809 180.252 132.029C181.235 133.295 182.13 134.595 183.001 135.94C182.734 136.093 182.468 136.246 182.194 136.403C175.365 140.331 168.764 144.314 162.562 149.182C160.565 150.726 160.565 150.726 159.202 150.726C158.594 150.107 158.594 150.107 157.955 149.235C157.719 148.915 157.483 148.595 157.239 148.265C156.99 147.916 156.741 147.568 156.484 147.209C156.226 146.851 155.967 146.494 155.701 146.126C152.466 141.599 149.793 136.881 147.201 131.962C146.997 131.577 146.794 131.191 146.584 130.794C145.149 128.028 143.997 125.287 142.79 122.387C105.824 122.252 68.8591 122.116 30.7736 121.977C32.8658 129.52 32.8658 129.52 35.5692 136.788C35.7398 137.187 35.9105 137.587 36.0863 137.998C40.158 147.349 45.2655 155.958 51.6997 163.868C51.8791 164.09 52.0585 164.311 52.2433 164.54C56.9409 170.305 62.1741 175.805 68.1123 180.296C68.3729 180.499 68.6334 180.702 68.9019 180.912C83.9779 192.665 101.108 199.464 119.812 202.884C119.556 205.131 118.781 207.021 117.94 209.096C115.388 215.579 113.451 222.35 112.016 229.169C110.608 229.642 109.649 229.512 108.213 229.181C107.785 229.084 107.358 228.986 106.918 228.886C106.459 228.776 106 228.666 105.528 228.552C105.051 228.439 104.573 228.326 104.081 228.209C93.1169 225.551 82.6016 221.739 72.6258 216.437C72.1347 216.188 71.6432 215.94 71.1512 215.693C60.5466 210.296 50.4488 202.951 42.083 194.486C41.3706 193.778 40.6261 193.127 39.8519 192.488C38.2262 191.084 36.8141 189.539 35.3977 187.926C34.8074 187.254 34.2088 186.59 33.5994 185.936C10.5858 161.175 0 127.733 0 94.4601C44.9541 94.4601 89.9083 94.4601 136.225 94.4601C136.089 94.1891 135.954 93.918 135.814 93.6387C132.96 72.4793 138.162 49.8741 148.124 31.2129C148.266 30.9442 148.408 30.6756 148.555 30.3987C151.677 24.5369 155.339 19.0508 159.613 13.9637C159.963 13.5364 160.314 13.1091 160.664 12.6818C163.055 9.80053 165.585 7.09048 168.229 4.44064C168.529 4.14043 168.828 3.84022 169.137 3.53091C172.739 -0.0362242 172.739 -0.0362241 173.908 0.0659517Z" fill="#01A0B6"/>
<path d="M670.817 258.002C671.837 258.896 672.796 259.817 673.737 260.792C673.972 261.033 674.207 261.274 674.449 261.522C676.166 263.404 677.409 265.565 678.661 267.774C678.771 267.431 678.881 267.089 678.995 266.736C680.523 262.344 682.316 259.506 686.483 257.301C690.002 255.599 693.573 255.777 697.408 255.761C697.901 255.753 698.395 255.744 698.904 255.735C703.692 255.715 708.197 256.29 711.897 259.56C715.077 262.911 716.189 266.133 716.159 270.675C716.162 271.283 716.162 271.283 716.166 271.902C716.172 273.253 716.169 274.604 716.166 275.955C716.168 276.926 716.171 277.897 716.174 278.868C716.182 281.501 716.181 284.134 716.179 286.767C716.178 288.412 716.179 290.057 716.181 291.702C716.181 291.976 716.181 292.249 716.182 292.531C716.182 293.086 716.183 293.642 716.183 294.197C716.189 299.401 716.187 304.605 716.182 309.809C716.178 314.567 716.183 319.325 716.193 324.084C716.203 328.974 716.207 333.864 716.204 338.755C716.203 341.498 716.204 344.242 716.211 346.986C716.217 349.565 716.216 352.144 716.208 354.723C716.207 355.67 716.208 356.616 716.212 357.563C716.218 358.855 716.213 360.146 716.206 361.438C716.21 361.813 716.213 362.188 716.218 362.573C716.186 365.279 715.622 367.158 713.628 369.11C713.279 369.34 713.279 369.34 712.923 369.575C712.69 369.735 712.457 369.895 712.217 370.06C710.889 370.765 709.592 370.912 708.104 370.938C707.595 370.948 707.595 370.948 707.074 370.958C705.519 370.976 703.964 370.993 702.409 371.003C701.592 371.009 700.776 371.02 699.959 371.036C691.168 371.204 691.168 371.204 688.099 368.805C687.736 368.525 687.736 368.525 687.366 368.239C686.714 367.692 686.111 367.122 685.508 366.521C682.698 363.805 680.417 361.747 676.456 361.233C673.23 361.623 670.65 363.143 667.916 364.827C658.321 370.733 649.715 371.889 638.705 369.406C629.671 367.141 621.869 362.799 615.062 356.484C614.851 356.288 614.639 356.093 614.421 355.891C602.847 345.035 596.233 330.287 595.662 314.443C595.283 296.543 601.001 281.19 613.395 268.212C620.18 261.302 629.048 256.133 638.45 253.81C638.722 253.743 638.993 253.676 639.272 253.607C649.62 251.184 662.06 251.292 670.817 258.002ZM638.45 287.077C631.811 295.244 630.426 305.081 631.177 315.298C632.244 324.096 635.948 332.248 642.762 338.077C648.694 342.414 656.052 343.262 663.202 342.346C668.528 341.298 673.095 338.841 676.199 334.307C679.115 329.008 679.207 323.26 679.224 317.361C679.228 316.686 679.231 316.011 679.235 315.337C679.242 313.931 679.245 312.526 679.246 311.121C679.248 309.329 679.264 307.537 679.283 305.744C679.295 304.354 679.298 302.964 679.298 301.574C679.3 300.914 679.305 300.253 679.314 299.592C679.366 295.251 678.914 292.375 676.185 288.883C670.727 283.431 663.569 280.819 655.927 280.459C649.743 280.729 642.858 282.508 638.45 287.077Z" fill="#01A0B6"/>
<path d="M500.405 255.325C500.869 255.313 501.332 255.301 501.81 255.289C507.09 255.249 510.98 256.919 514.946 260.381C519.298 264.722 520.506 271.367 522.14 277.104C522.354 277.848 522.568 278.592 522.782 279.335C523.348 281.304 523.91 283.274 524.472 285.245C524.82 286.465 525.169 287.684 525.518 288.904C528.819 300.445 532.11 311.989 535.051 323.629C535.123 323.911 535.194 324.194 535.268 324.485C535.911 327.032 536.544 329.582 537.147 332.139C537.219 332.443 537.291 332.747 537.365 333.06C537.513 333.896 537.513 333.896 537.513 335.539C537.784 335.539 538.055 335.539 538.334 335.539C538.383 335.004 538.432 334.469 538.482 333.918C538.702 331.956 539.127 330.11 539.648 328.209C539.742 327.857 539.836 327.506 539.934 327.143C540.252 325.962 540.575 324.783 540.898 323.603C541.011 323.188 541.124 322.773 541.24 322.346C544.406 310.722 547.812 299.166 551.213 287.609C552.094 284.616 552.968 281.622 553.823 278.621C554.228 277.204 554.636 275.788 555.045 274.372C555.217 273.771 555.388 273.17 555.555 272.568C557.397 265.972 559.931 260.847 565.898 257.243C568.934 255.779 571.64 255.235 575.005 255.273C575.574 255.278 575.574 255.278 576.153 255.283C581.072 255.402 584.514 256.985 588.02 260.396C591.651 264.24 593.553 268.615 593.415 273.91C593.128 277.54 591.818 281.057 590.577 284.457C590.43 284.865 590.283 285.272 590.132 285.693C589.648 287.036 589.161 288.378 588.674 289.721C588.328 290.68 587.982 291.639 587.636 292.598C586.903 294.634 586.167 296.669 585.431 298.703C584.287 301.863 583.149 305.025 582.011 308.187C580.399 312.667 578.786 317.146 577.17 321.624C576.022 324.805 574.875 327.987 573.73 331.17C573.098 332.927 572.465 334.684 571.832 336.441C571.544 337.242 571.255 338.043 570.967 338.844C569.591 342.674 568.199 346.497 566.74 350.297C566.626 350.596 566.512 350.896 566.395 351.204C563.489 358.691 557.354 364.988 550.022 368.26C541.934 371.589 532.81 371.927 524.639 368.677C515.92 364.701 509.871 358.358 506.382 349.407C505.626 347.345 504.932 345.264 504.245 343.179C503.72 341.586 503.185 339.996 502.651 338.405C502.373 337.577 502.096 336.749 501.819 335.921C500.557 332.153 499.251 328.401 497.935 324.651C495.392 317.404 492.907 310.139 490.449 302.864C488.945 298.413 487.433 293.965 485.856 289.539C485.669 289.012 485.669 289.012 485.478 288.475C484.902 286.854 484.321 285.235 483.734 283.618C481.605 277.699 480.127 271.876 482.851 265.858C485.304 261.152 488.645 257.863 493.609 255.864C495.815 255.194 498.121 255.344 500.405 255.325Z" fill="#01A0B6"/>
<path d="M330.304 255.248C330.754 255.241 331.205 255.235 331.669 255.228C337.105 255.254 340.897 257.1 344.745 260.848C348.141 264.442 349.248 268.723 350.597 273.399C350.771 273.995 350.945 274.591 351.119 275.187C351.584 276.782 352.046 278.378 352.507 279.975C352.795 280.971 353.084 281.968 353.373 282.964C364.912 322.742 364.912 322.742 367.232 334.717C368.056 333.265 368.437 331.745 368.832 330.137C368.992 329.504 369.152 328.871 369.312 328.239C369.398 327.896 369.485 327.554 369.574 327.201C372.732 314.732 376.395 302.402 380.018 290.062C380.733 287.625 381.442 285.186 382.151 282.747C382.704 280.846 383.262 278.948 383.821 277.049C384.076 276.183 384.329 275.316 384.58 274.449C386.607 267.46 388.736 260.911 395.489 257.129C398.376 255.666 401.102 255.236 404.314 255.273C404.693 255.276 405.073 255.28 405.463 255.283C408.296 255.351 410.673 255.715 413.187 257.096C413.508 257.265 413.829 257.435 414.16 257.609C418.164 259.988 421.013 264.12 422.458 268.515C423.615 274.775 421.816 280.041 419.646 285.846C419.08 287.372 418.531 288.904 417.98 290.434C416.891 293.452 415.793 296.466 414.692 299.479C412.846 304.534 411.023 309.597 409.203 314.661C407.958 318.122 406.71 321.582 405.462 325.042C405.367 325.304 405.273 325.567 405.175 325.838C404.984 326.366 404.794 326.895 404.603 327.424C403.943 329.253 403.284 331.083 402.626 332.913C401.735 335.388 400.841 337.861 399.945 340.334C399.614 341.249 399.284 342.164 398.955 343.079C394.711 354.892 394.711 354.892 390.62 359.77C390.324 360.176 390.028 360.583 389.722 361.002C385.17 366.323 377.149 370.144 370.241 370.806C360.001 371.372 351.798 368.717 344.025 362.172C340.057 358.475 337.767 354.109 335.936 349.089C335.777 348.658 335.618 348.227 335.454 347.783C333.929 343.627 332.497 339.441 331.089 335.244C330.339 333.009 329.583 330.775 328.828 328.541C328.675 328.09 328.523 327.64 328.366 327.175C326.91 322.878 325.419 318.593 323.918 314.311C321.428 307.202 318.99 300.076 316.575 292.942C316.317 292.181 316.059 291.42 315.802 290.659C315.616 290.11 315.616 290.11 315.426 289.549C314.79 287.674 314.145 285.803 313.486 283.937C313.354 283.563 313.221 283.189 313.085 282.803C312.835 282.095 312.583 281.388 312.33 280.681C310.654 275.952 310.175 270.833 312.25 266.131C312.996 264.707 313.819 263.361 314.712 262.024C314.949 261.66 315.186 261.296 315.43 260.92C319.604 256.626 324.445 255.165 330.304 255.248Z" fill="#01A0B6"/>
<path d="M452.526 255.273C452.925 255.277 453.324 255.28 453.734 255.284C458.975 255.408 462.808 257.231 466.621 260.834C470.203 264.633 471.993 268.981 471.972 274.192C471.974 274.538 471.976 274.885 471.978 275.241C471.983 276.397 471.982 277.552 471.982 278.708C471.984 279.538 471.987 280.369 471.99 281.2C471.997 283.453 471.999 285.705 472 287.958C472 289.367 472.002 290.776 472.004 292.185C472.012 297.103 472.015 302.021 472.015 306.94C472.014 311.518 472.023 316.097 472.036 320.676C472.046 324.612 472.051 328.547 472.05 332.483C472.05 334.832 472.052 337.18 472.061 339.529C472.069 341.739 472.069 343.949 472.063 346.159C472.062 346.968 472.064 347.776 472.069 348.585C472.109 355.445 471.048 360.499 466.169 365.622C461.987 369.618 457.151 371.016 451.435 370.945C446.065 370.593 441.471 368.385 437.808 364.456C433.258 358.979 433.11 353.127 433.134 346.328C433.132 345.517 433.13 344.706 433.127 343.895C433.121 341.706 433.124 339.517 433.128 337.328C433.131 335.03 433.128 332.732 433.126 330.434C433.124 326.577 433.127 322.72 433.132 318.863C433.139 314.411 433.137 309.959 433.13 305.508C433.125 301.676 433.124 297.845 433.127 294.014C433.129 291.73 433.129 289.446 433.125 287.161C433.122 285.014 433.124 282.866 433.131 280.718C433.133 279.933 433.132 279.147 433.13 278.362C433.107 271.056 434.11 265.598 439.26 260.093C443.049 256.548 447.435 255.217 452.526 255.273Z" fill="#01A0B6"/>
<path d="M217.146 58.152C221.125 61.3988 223.329 65.6809 224.442 70.6397C224.84 77.1128 224.084 82.6441 219.929 87.889C217.93 90.0844 215.943 91.5598 213.284 92.873C212.839 93.0937 212.393 93.3143 211.934 93.5417C211.594 93.7092 211.253 93.8768 210.902 94.0494C210.901 94.3312 210.9 94.6129 210.898 94.9032C210.882 97.842 210.838 100.779 210.777 103.718C210.756 104.814 210.746 105.909 210.742 107.005C210.734 108.583 210.7 110.159 210.662 111.737C210.666 112.469 210.666 112.469 210.671 113.216C210.554 116.553 210.554 116.553 209.199 117.972C208.155 118.712 207.109 119.326 205.978 119.923C205.313 120.342 204.65 120.764 203.991 121.192C203.355 121.583 202.718 121.973 202.08 122.362C201.753 122.564 201.426 122.767 201.09 122.975C200.778 123.166 200.466 123.357 200.144 123.554C199.865 123.725 199.586 123.896 199.299 124.072C198.593 124.441 198.593 124.441 197.772 124.441C197.637 114.276 197.501 104.111 197.362 93.6387C196.685 93.5032 196.008 93.3677 195.31 93.228C190.397 90.9482 186.696 86.9607 184.643 81.966C182.631 76.2219 183.015 70.3767 185.514 64.8387C188.22 59.801 192.605 56.3311 197.959 54.5103C204.762 52.5648 211.475 54.0745 217.146 58.152Z" fill="#FDCB00"/>
<path d="M451.012 205.286C456.311 205.073 461.146 206.668 465.249 210.007C468.679 213.187 471.624 217.365 471.912 222.189C472.161 229.021 471.172 234.343 466.424 239.577C461.987 243.79 456.815 245.33 450.815 245.274C444.977 244.935 440.532 242.426 436.575 238.204C432.973 233.57 431.675 228.455 432.164 222.602C433.107 216.648 435.981 212.187 440.768 208.534C443.917 206.542 447.325 205.543 451.012 205.286Z" fill="#FDCB00"/>
<path d="M208.44 214.383C208.077 235.285 207.711 256.187 207.342 277.089C207.269 281.243 207.195 285.396 207.122 289.55C206.97 298.203 206.818 306.855 206.662 315.508C206.595 319.197 206.53 322.887 206.465 326.577C206.41 329.714 206.354 332.851 206.297 335.988C206.268 337.584 206.239 339.18 206.212 340.775C206.187 342.236 206.161 343.697 206.133 345.158C206.119 345.931 206.106 346.703 206.094 347.475C206.049 349.744 205.975 352.009 205.83 354.273C205.793 354.857 205.793 354.857 205.755 355.452C205.459 357.084 204.715 357.841 203.516 358.949C200.78 356.354 200.78 356.354 200.532 354.342C200.525 353.842 200.525 353.842 200.518 353.333C200.511 352.948 200.504 352.564 200.496 352.168C200.491 351.54 200.491 351.54 200.485 350.899C200.474 350.235 200.474 350.235 200.464 349.557C200.441 348.085 200.424 346.612 200.407 345.14C200.392 344.098 200.377 343.057 200.362 342.015C200.33 339.842 200.301 337.668 200.274 335.494C200.237 332.456 200.195 329.418 200.153 326.38C200.077 320.918 200.01 315.457 199.944 309.995C199.914 307.553 199.884 305.111 199.854 302.669C199.791 297.553 199.728 292.436 199.666 287.32C199.614 282.966 199.56 278.612 199.506 274.258C199.443 269.134 199.38 264.011 199.317 258.888C199.285 256.2 199.252 253.512 199.218 250.823C199.206 249.793 199.193 248.763 199.18 247.733C199.171 246.987 199.171 246.987 199.161 246.225C199.132 243.843 199.105 241.461 199.084 239.078C199.076 238.197 199.068 237.316 199.06 236.435C199.056 236.016 199.053 235.598 199.049 235.167C199.027 232.98 198.985 230.796 198.908 228.61C198.878 227.738 198.854 226.866 198.832 225.993C198.805 225.013 198.767 224.034 198.713 223.056C198.651 220.186 198.651 220.186 199.658 218.858C201.21 217.461 202.828 216.609 204.786 215.91C206.077 215.423 207.051 214.383 208.44 214.383Z" fill="#FDCB00"/>
<path d="M357 394.089C357.262 394.284 357.525 394.478 357.795 394.679C358.188 394.387 358.188 394.387 358.59 394.089C360.802 392.959 362.724 392.796 365.104 393.498C366.51 394.327 367.159 394.966 368.053 396.322C368.239 397.535 368.239 397.535 368.213 398.858C368.208 399.333 368.202 399.809 368.197 400.298C368.183 400.79 368.169 401.282 368.155 401.789C368.148 402.289 368.14 402.789 368.133 403.305C368.114 404.537 368.087 405.768 368.053 407C366.969 407 365.886 407 364.77 407C364.764 406.747 364.758 406.495 364.752 406.234C364.721 405.086 364.682 403.938 364.642 402.79C364.628 402.194 364.628 402.194 364.614 401.586C364.599 401.202 364.585 400.818 364.57 400.422C364.559 400.07 364.548 399.717 364.537 399.354C364.323 398.174 363.959 397.59 363.129 396.733C361.711 396.585 360.79 396.692 359.436 397.143C358.942 399.152 358.888 401.169 358.795 403.227C358.768 403.771 358.768 403.771 358.741 404.326C358.698 405.218 358.657 406.109 358.615 407C357.532 407 356.449 407 355.333 407C355.327 406.762 355.321 406.524 355.315 406.279C355.284 405.193 355.244 404.107 355.205 403.021C355.195 402.647 355.186 402.272 355.177 401.886C355.081 399.098 355.081 399.098 353.692 396.733C352.015 396.488 351.424 396.603 349.999 397.554C349.617 398.7 349.512 399.511 349.459 400.703C349.441 401.07 349.424 401.436 349.407 401.814C349.382 402.386 349.382 402.386 349.358 402.97C349.34 403.356 349.322 403.742 349.304 404.14C349.261 405.093 349.219 406.047 349.178 407C347.96 407 346.741 407 345.485 407C345.485 402.527 345.485 398.055 345.485 393.447C347.127 393.447 348.768 393.447 350.409 393.447C350.668 393.377 350.926 393.307 351.193 393.235C353.184 392.773 355.208 393.174 357 394.089Z" fill="#019FB5"/>
<path d="M424.676 388.108C425.895 388.108 427.113 388.108 428.369 388.108C428.369 394.342 428.369 400.577 428.369 407C427.286 407 426.203 407 425.087 407C424.951 406.729 424.816 406.458 424.676 406.179C424.27 406.45 423.864 406.721 423.445 407C421.063 407.274 418.848 407.336 416.649 406.333C414.622 404.355 413.9 403.081 413.803 400.223C413.877 398.047 414.081 396.701 415.649 395.09C417.517 393.481 419.367 392.914 421.804 393.036C422.616 393.307 423.429 393.578 424.266 393.858C424.401 391.96 424.537 390.063 424.676 388.108ZM418.573 397.195C417.594 398.52 417.291 399.196 417.291 400.839C417.767 402.145 418.161 403.007 419.24 403.894C420.63 404.242 421.653 404.06 423.035 403.714C424.106 402.924 424.563 402.351 425.061 401.122C425.097 399.554 424.581 398.517 423.856 397.143C421.944 395.868 420.441 395.812 418.573 397.195Z" fill="#019FB5"/>
<path d="M687.406 394.114C688.688 395.248 689.645 396.312 690.15 397.965C690.15 399.049 690.15 400.133 690.15 401.25C686.765 401.25 683.38 401.25 679.892 401.25C680.531 402.839 680.531 402.839 681.405 403.406C683.023 403.932 684.582 404.001 686.15 403.304C686.387 403.168 686.624 403.033 686.868 402.893C687.274 402.893 687.68 402.893 688.099 402.893C688.817 403.637 688.817 403.637 689.33 404.536C688.919 405.768 688.919 405.768 687.842 406.45C685.503 407.379 683.19 407.265 680.713 407C678.852 406.133 677.773 404.985 676.61 403.304C675.851 401.025 675.872 398.81 676.866 396.604C677.903 394.764 679.263 393.813 681.251 393.113C683.487 392.957 685.378 393.119 687.406 394.114ZM680.713 397.143C680.442 397.685 680.171 398.228 679.892 398.786C682.059 398.786 684.225 398.786 686.457 398.786C686.322 398.244 686.187 397.702 686.047 397.143C683.756 395.777 682.901 395.61 680.713 397.143Z" fill="#019FB5"/>
<path d="M395.467 393.96C396.734 394.975 397.689 396.099 398.416 397.554C398.416 398.774 398.416 399.994 398.416 401.25C395.166 401.386 391.917 401.521 388.568 401.661C390.259 403.699 390.259 403.699 391.495 403.944C393.028 403.851 393.834 403.76 395.134 402.893C396.348 403.04 396.712 403.241 397.595 404.125C397.57 404.921 397.57 404.921 397.185 405.768C395.552 407.003 394.31 407.167 392.287 407.154C391.801 407.157 391.315 407.16 390.814 407.164C388.782 406.93 387.427 406.282 386.004 404.818C384.609 402.674 384.291 400.946 384.656 398.448C385.142 396.469 386.17 395.358 387.748 394.14C390.272 392.719 392.825 392.785 395.467 393.96ZM389.389 396.733C388.78 397.749 388.78 397.749 388.158 398.786C390.46 398.786 392.762 398.786 395.134 398.786C394.146 396.722 394.146 396.722 392.723 396.142C391.238 395.875 390.665 395.939 389.389 396.733Z" fill="#019FB5"/>
<path d="M603.311 393.957C605.108 395.329 605.829 396.508 606.266 398.735C606.422 399.912 606.422 399.912 606.446 400.84C605.742 401.544 604.803 401.345 603.841 401.38C603.398 401.397 602.955 401.415 602.499 401.432C602.033 401.448 601.566 401.465 601.086 401.481C600.384 401.508 600.384 401.508 599.668 401.535C598.508 401.579 597.348 401.621 596.188 401.661C597.435 403.13 597.435 403.13 599.115 403.944C600.647 403.851 601.453 403.76 602.753 402.893C603.968 403.04 604.331 403.241 605.215 404.125C605.189 404.921 605.189 404.921 604.805 405.768C602.435 407.552 599.845 407.291 597.009 407C595.349 406.507 594.357 405.578 593.136 404.356C592.151 402.109 592.194 399.969 592.495 397.554C593.424 395.517 594.664 394.536 596.598 393.447C598.851 392.725 601.209 392.85 603.311 393.957ZM596.598 397.143C596.327 397.685 596.057 398.228 595.778 398.786C598.08 398.786 600.381 398.786 602.753 398.786C601.895 397.069 601.525 396.734 599.881 395.911C598.576 395.911 597.71 396.494 596.598 397.143Z" fill="#019FB5"/>
<path d="M504.274 393.907C505.156 394.619 505.821 395.304 506.329 396.322C506.364 397.127 506.373 397.933 506.369 398.738C506.368 399.217 506.366 399.696 506.365 400.19C506.362 400.692 506.358 401.195 506.355 401.712C506.353 402.218 506.351 402.723 506.349 403.244C506.344 404.496 506.337 405.748 506.329 407C504.824 407 503.32 407 501.815 407C501.415 407.019 501.014 407.038 500.601 407.058C499.907 407.08 499.907 407.08 499.2 407.103C498.74 407.122 498.279 407.141 497.805 407.16C496.205 406.967 495.566 406.474 494.43 405.357C493.794 404.084 493.901 403.066 494.019 401.661C495.014 400.001 495.892 399.357 497.712 398.786C499.08 398.706 499.08 398.706 500.508 398.735C501.222 398.746 501.222 398.746 501.952 398.757C502.313 398.767 502.674 398.776 503.046 398.786C502.509 397.504 502.509 397.504 501.405 396.733C499.342 396.558 497.535 396.586 495.661 397.554C495.02 396.604 495.02 396.604 494.43 395.501C494.84 394.268 494.84 394.268 495.619 393.864C498.431 392.994 501.573 392.386 504.274 393.907ZM497.712 402.072C497.868 403.423 497.868 403.423 498.533 404.536C500.089 404.713 500.821 404.642 502.175 403.817C503.234 402.906 503.234 402.906 503.046 401.25C502.388 401.228 501.73 401.212 501.072 401.199C500.705 401.189 500.339 401.18 499.961 401.17C498.839 401.175 498.839 401.175 497.712 402.072Z" fill="#019FB5"/>
<path d="M633.116 393.447C634.578 394.35 635.361 395.146 635.989 396.733C636.082 397.862 636.082 397.862 636.069 399.139C636.066 399.597 636.063 400.055 636.061 400.527C636.054 401.003 636.047 401.479 636.04 401.969C636.036 402.451 636.032 402.934 636.029 403.43C636.019 404.62 636.005 405.81 635.989 407C634.905 407 633.822 407 632.706 407C632.698 406.76 632.69 406.52 632.681 406.272C632.642 405.18 632.597 404.088 632.552 402.996C632.539 402.618 632.527 402.24 632.514 401.85C632.498 401.485 632.482 401.12 632.466 400.743C632.446 400.24 632.446 400.24 632.427 399.727C632.284 398.701 632.02 398.02 631.475 397.143C630.348 396.579 629.44 396.682 628.193 396.733C627.786 396.868 627.38 397.004 626.962 397.143C626.519 398.315 626.477 399.499 626.422 400.743C626.404 401.109 626.387 401.474 626.369 401.85C626.353 402.228 626.337 402.606 626.321 402.996C626.303 403.38 626.285 403.764 626.267 404.16C626.223 405.107 626.182 406.053 626.141 407C624.922 407 623.704 407 622.448 407C622.448 402.528 622.448 398.055 622.448 393.447C623.667 393.447 624.885 393.447 626.141 393.447C626.141 393.718 626.141 393.989 626.141 394.268C626.606 394.057 627.072 393.845 627.551 393.627C629.489 392.905 631.128 392.885 633.116 393.447Z" fill="#019FB5"/>
<path d="M575.877 394.191C576.888 395.077 577.219 395.416 577.313 396.733C576.595 397.374 576.595 397.374 575.672 397.965C574.414 397.85 573.882 397.454 572.8 396.733C571.144 396.48 570.535 396.591 569.158 397.58C568.188 398.739 568.188 398.739 568.03 400.223C568.355 402.043 568.846 402.643 570.338 403.714C571.587 403.988 571.587 403.988 572.8 403.714C573.079 403.503 573.359 403.291 573.646 403.073C574.441 402.482 574.441 402.482 575.518 402.585C576.493 402.893 576.493 402.893 577.313 403.304C577.235 404.711 576.982 405.273 576.006 406.307C573.853 407.591 571.09 407.279 568.697 407C566.646 406.08 565.703 404.826 564.594 402.893C563.929 400.896 564.023 399.303 564.645 397.297C565.788 395.238 567.069 394.193 569.235 393.293C571.722 392.871 573.625 393.024 575.877 394.191Z" fill="#019FB5"/>
<path d="M477.427 394.191C478.413 395.077 478.745 395.432 478.838 396.733C478.12 397.374 478.12 397.374 477.197 397.965C475.938 397.85 475.406 397.454 474.324 396.733C472.765 396.562 471.818 396.517 470.452 397.323C469.512 398.866 469.613 400.306 469.811 402.072C469.946 402.478 470.082 402.885 470.221 403.304C470.869 403.407 471.52 403.499 472.17 403.586C472.713 403.665 472.713 403.665 473.266 403.745C474.565 403.707 474.985 403.293 475.966 402.482C477.043 402.508 477.043 402.508 478.017 402.893C478.556 403.74 478.556 403.74 478.838 404.536C477.362 406.093 476.543 406.919 474.355 407.098C469.7 407.2 469.7 407.2 467.759 405.357C465.926 403.324 465.535 401.728 465.567 399.049C465.799 397.265 466.552 395.992 467.759 394.679C470.844 392.725 474.158 392.526 477.427 394.191Z" fill="#019EB4"/>
<path d="M654.042 390.572C655.126 390.572 656.209 390.572 657.325 390.572C657.325 391.521 657.325 392.47 657.325 393.447C658.544 393.447 659.762 393.447 661.018 393.447C661.018 394.396 661.018 395.344 661.018 396.322C659.799 396.322 658.58 396.322 657.325 396.322C657.382 397.477 657.443 398.632 657.504 399.787C657.521 400.117 657.537 400.446 657.553 400.786C657.491 402.381 657.491 402.381 658.146 403.714C659.103 403.731 660.061 403.732 661.018 403.714C661.617 404.802 661.838 405.314 661.838 406.589C660.745 407.137 659.854 407.115 658.633 407.154C658.207 407.174 657.781 407.194 657.343 407.215C656.094 407 656.094 407 654.918 406.241C653.64 404.351 653.817 402.732 653.914 400.506C653.928 399.903 653.928 399.903 653.942 399.287C653.966 398.298 654 397.31 654.042 396.322C653.23 396.322 652.418 396.322 651.581 396.322C651.581 395.373 651.581 394.424 651.581 393.447C652.393 393.447 653.205 393.447 654.042 393.447C654.042 392.498 654.042 391.55 654.042 390.572Z" fill="#01A0B6"/>
<path d="M714.769 393.036C714.769 394.256 714.769 395.476 714.769 396.733C714.321 396.775 713.872 396.817 713.41 396.861C711.953 397.025 711.953 397.025 711.128 397.682C710.306 398.916 710.203 400.252 710.126 401.706C710.109 402.016 710.091 402.325 710.074 402.644C710.049 403.123 710.049 403.123 710.025 403.612C710.007 403.937 709.989 404.263 709.971 404.598C709.928 405.399 709.886 406.199 709.845 407C708.762 407 707.679 407 706.563 407C706.563 402.528 706.563 398.055 706.563 393.447C707.646 393.447 708.729 393.447 709.845 393.447C709.981 393.718 710.116 393.989 710.256 394.268C710.696 394.065 711.136 393.862 711.589 393.652C712.822 393.083 713.316 393.036 714.769 393.036Z" fill="#01A0B5"/>
<path d="M523.972 388.108C525.056 388.108 526.139 388.108 527.255 388.108C527.255 394.342 527.255 400.577 527.255 407C526.172 407 525.089 407 523.972 407C523.972 400.766 523.972 394.531 523.972 388.108Z" fill="#01A0B6"/>
<path d="M445.602 393.447C446.821 393.447 448.04 393.447 449.295 393.447C449.295 397.92 449.295 402.392 449.295 407C448.076 407 446.858 407 445.602 407C445.602 402.528 445.602 398.055 445.602 393.447Z" fill="#019CB0"/>
<path d="M449.295 387.697C449.552 389.083 449.552 389.083 449.705 390.572C448.885 391.394 448.885 391.394 447.397 391.445C446.94 391.428 446.483 391.411 446.013 391.394C445.551 390.469 445.551 390.469 445.192 389.34C445.5 388.416 445.5 388.416 446.013 387.697C447.187 387.11 448.037 387.451 449.295 387.697Z" fill="#019DB2"/>
</g>
<defs>
<clipPath id="clip0_462_26890">
<rect width="716" height="407" fill="white"/>
</clipPath>
</defs>
</svg>
